<svg width="1280" height="720" xmlns="http://www.w3.org/2000/svg" xmlns:xlink="http://www.w3.org/1999/xlink" overflow="hidden"><g><rect x="0" y="0" width="1280" height="720" fill="#FFFFFF" fill-opacity="0"/><path d="M275.5 128.334C275.5 121.798 280.798 116.5 287.334 116.5L334.667 116.5C341.202 116.5 346.5 121.798 346.5 128.334L346.5 290.667C346.5 297.202 341.202 302.5 334.667 302.5L287.334 302.5C280.798 302.5 275.5 297.202 275.5 290.667Z" fill="#92D050" fill-rule="evenodd"/><path d="M287.334 302.5C280.798 302.5 275.5 297.202 275.5 290.667L275.5 128.334C275.5 121.798 280.798 116.5 287.334 116.5M334.667 116.5C341.202 116.5 346.5 121.798 346.5 128.334L346.5 290.667C346.5 297.202 341.202 302.5 334.667 302.5" stroke="#000000" stroke-width="0.666667" stroke-miterlimit="8" fill="none" fill-rule="evenodd"/><path d="M275.5 329.5C275.5 325.634 278.634 322.5 282.5 322.5L339.5 322.5C343.366 322.5 346.5 325.634 346.5 329.5L346.5 357.5C346.5 361.366 343.366 364.5 339.5 364.5L282.5 364.5C278.634 364.5 275.5 361.366 275.5 357.5Z" fill="#92D050" fill-rule="evenodd"/><path d="M282.5 364.5C278.634 364.5 275.5 361.366 275.5 357.5L275.5 329.5C275.5 325.634 278.634 322.5 282.5 322.5M339.5 322.5C343.366 322.5 346.5 325.634 346.5 329.5L346.5 357.5C346.5 361.366 343.366 364.5 339.5 364.5" stroke="#000000" stroke-width="0.666667" stroke-miterlimit="8" fill="none" fill-rule="evenodd"/><path d="M18.5001 109.001C18.5001 79.4534 42.4534 55.5001 72.0014 55.5001L285.999 55.5001C315.547 55.5001 339.5 79.4534 339.5 109.001L339.5 612.999C339.5 642.547 315.547 666.5 285.999 666.5L72.0014 666.5C42.4534 666.5 18.5001 642.547 18.5001 612.999Z" stroke="#6C4F00" stroke-width="1.33333" stroke-miterlimit="8" fill="#92D050" fill-rule="evenodd"/><path d="M34 119.168C34 92.5654 55.5655 71 82.1678 71L274.832 71C301.435 71 323 92.5654 323 119.168L323 602.832C323 629.435 301.435 651 274.832 651L82.1678 651C55.5655 651 34 629.435 34 602.832Z" stroke="#FFFFFF" stroke-width="2" stroke-miterlimit="8" fill="#E2F0D9" fill-rule="evenodd"/><path d="M190.153 55.1651C193.606 63.1019 189.97 72.3348 182.033 75.7872 174.097 79.2397 164.864 75.6044 161.411 67.6676 159.753 63.8563 159.678 59.5424 161.2 55.675Z" stroke="#172C51" stroke-width="1.33333" stroke-miterlimit="8" fill="#C5E0B4" fill-rule="evenodd"/><path d="M357.5 126.334C357.5 119.798 362.798 114.5 369.334 114.5L416.667 114.5C423.202 114.5 428.5 119.798 428.5 126.334L428.5 288.667C428.5 295.202 423.202 300.5 416.667 300.5L369.334 300.5C362.798 300.5 357.5 295.202 357.5 288.667Z" fill="#7F7F7F" fill-rule="evenodd"/><path d="M369.334 300.5C362.798 300.5 357.5 295.202 357.5 288.667L357.5 126.334C357.5 119.798 362.798 114.5 369.334 114.5M416.667 114.5C423.202 114.5 428.5 119.798 428.5 126.334L428.5 288.667C428.5 295.202 423.202 300.5 416.667 300.5" stroke="#000000" stroke-width="0.666667" stroke-miterlimit="8" fill="none" fill-rule="evenodd"/><path d="M357.5 327.333C357.5 323.56 360.56 320.5 364.333 320.5L421.667 320.5C425.441 320.5 428.5 323.56 428.5 327.333L428.5 354.667C428.5 358.441 425.441 361.5 421.667 361.5L364.333 361.5C360.56 361.5 357.5 358.441 357.5 354.667Z" fill="#7F7F7F" fill-rule="evenodd"/><path d="M364.333 361.5C360.56 361.5 357.5 358.441 357.5 354.667L357.5 327.333C357.5 323.56 360.56 320.5 364.333 320.5M421.667 320.5C425.441 320.5 428.5 323.56 428.5 327.333L428.5 354.667C428.5 358.441 425.441 361.5 421.667 361.5" stroke="#000000" stroke-width="0.666667" stroke-miterlimit="8" fill="none" fill-rule="evenodd"/><path d="M100.5 105.835C100.5 76.3787 124.379 52.5001 153.835 52.5001L367.165 52.5001C396.621 52.5001 420.5 76.3787 420.5 105.835L420.5 611.166C420.5 640.621 396.621 664.5 367.165 664.5L153.835 664.5C124.379 664.5 100.5 640.621 100.5 611.166Z" stroke="#6C4F00" stroke-width="1.33333" stroke-miterlimit="8" fill="#262626" fill-rule="evenodd"/><path d="M116 117.168C116 90.5654 137.565 69 164.168 69L356.832 69C383.435 69 405 90.5654 405 117.168L405 599.832C405 626.435 383.435 648 356.832 648L164.168 648C137.565 648 116 626.435 116 599.832Z" stroke="#FFFFFF" stroke-width="2" stroke-miterlimit="8" fill="#7F7F7F" fill-rule="evenodd"/><path d="M271.773 52.6056C275.225 60.5423 271.59 69.7752 263.653 73.2276 255.716 76.6801 246.484 73.0448 243.031 65.108 241.373 61.2967 241.297 56.9828 242.82 53.1154Z" stroke="#172C51" stroke-width="1.33333" stroke-miterlimit="8" fill="#595959" fill-rule="evenodd"/><path d="M450.5 126.334C450.5 119.798 455.798 114.5 462.334 114.5L509.667 114.5C516.202 114.5 521.5 119.798 521.5 126.334L521.5 288.667C521.5 295.202 516.202 300.5 509.667 300.5L462.334 300.5C455.798 300.5 450.5 295.202 450.5 288.667Z" fill="#C55A11" fill-rule="evenodd"/><path d="M462.334 300.5C455.798 300.5 450.5 295.202 450.5 288.667L450.5 126.334C450.5 119.798 455.798 114.5 462.334 114.5M509.667 114.5C516.202 114.5 521.5 119.798 521.5 126.334L521.5 288.667C521.5 295.202 516.202 300.5 509.667 300.5" stroke="#000000" stroke-width="0.666667" stroke-miterlimit="8" fill="none" fill-rule="evenodd"/><path d="M450.5 327.333C450.5 323.56 453.56 320.5 457.333 320.5L514.667 320.5C518.441 320.5 521.5 323.56 521.5 327.333L521.5 354.667C521.5 358.441 518.441 361.5 514.667 361.5L457.333 361.5C453.56 361.5 450.5 358.441 450.5 354.667Z" fill="#C55A11" fill-rule="evenodd"/><path d="M457.333 361.5C453.56 361.5 450.5 358.441 450.5 354.667L450.5 327.333C450.5 323.56 453.56 320.5 457.333 320.5M514.667 320.5C518.441 320.5 521.5 323.56 521.5 327.333L521.5 354.667C521.5 358.441 518.441 361.5 514.667 361.5" stroke="#000000" stroke-width="0.666667" stroke-miterlimit="8" fill="none" fill-rule="evenodd"/><path d="M193.5 106.834C193.5 77.3786 217.379 53.5001 246.834 53.5001L460.166 53.5001C489.621 53.5001 513.5 77.3786 513.5 106.834L513.5 611.166C513.5 640.621 489.621 664.5 460.166 664.5L246.834 664.5C217.379 664.5 193.5 640.621 193.5 611.166Z" stroke="#6C4F00" stroke-width="1.33333" stroke-miterlimit="8" fill="#C00000" fill-rule="evenodd"/><path d="M209 117.168C209 90.5654 230.565 69 257.168 69L449.832 69C476.435 69 498 90.5654 498 117.168L498 600.832C498 627.435 476.435 649 449.832 649L257.168 649C230.565 649 209 627.435 209 600.832Z" stroke="#FFFFFF" stroke-width="2" stroke-miterlimit="8" fill="#FF0000" fill-rule="evenodd"/><path d="M364.707 53.1702C368.159 61.107 364.524 70.3398 356.587 73.7923 348.651 77.2447 339.418 73.6095 335.965 65.6727 334.307 61.8613 334.231 57.5474 335.754 53.68Z" stroke="#172C51" stroke-width="1.33333" stroke-miterlimit="8" fill="#C00000" fill-rule="evenodd"/><path d="M551.5 125.334C551.5 118.798 556.798 113.5 563.334 113.5L610.667 113.5C617.202 113.5 622.5 118.798 622.5 125.334L622.5 287.667C622.5 294.202 617.202 299.5 610.667 299.5L563.334 299.5C556.798 299.5 551.5 294.202 551.5 287.667Z" fill="#FFC000" fill-rule="evenodd"/><path d="M563.334 299.5C556.798 299.5 551.5 294.202 551.5 287.667L551.5 125.334C551.5 118.798 556.798 113.5 563.334 113.5M610.667 113.5C617.202 113.5 622.5 118.798 622.5 125.334L622.5 287.667C622.5 294.202 617.202 299.5 610.667 299.5" stroke="#000000" stroke-width="0.666667" stroke-miterlimit="8" fill="none" fill-rule="evenodd"/><path d="M551.5 326.333C551.5 322.56 554.56 319.5 558.333 319.5L615.667 319.5C619.441 319.5 622.5 322.56 622.5 326.333L622.5 353.667C622.5 357.441 619.441 360.5 615.667 360.5L558.333 360.5C554.56 360.5 551.5 357.441 551.5 353.667Z" fill="#FFC000" fill-rule="evenodd"/><path d="M558.333 360.5C554.56 360.5 551.5 357.441 551.5 353.667L551.5 326.333C551.5 322.56 554.56 319.5 558.333 319.5M615.667 319.5C619.441 319.5 622.5 322.56 622.5 326.333L622.5 353.667C622.5 357.441 619.441 360.5 615.667 360.5" stroke="#000000" stroke-width="0.666667" stroke-miterlimit="8" fill="none" fill-rule="evenodd"/><path d="M294.5 104.835C294.5 75.3787 318.379 51.5001 347.835 51.5001L561.166 51.5001C590.621 51.5001 614.5 75.3787 614.5 104.835L614.5 610.166C614.5 639.621 590.621 663.5 561.166 663.5L347.835 663.5C318.379 663.5 294.5 639.621 294.5 610.166Z" stroke="#6C4F00" stroke-width="1.33333" stroke-miterlimit="8" fill="#FFC000" fill-rule="evenodd"/><path d="M310 116.168C310 89.5654 331.565 68 358.168 68L550.832 68C577.435 68 599 89.5654 599 116.168L599 598.832C599 625.435 577.435 647 550.832 647L358.168 647C331.565 647 310 625.435 310 598.832Z" stroke="#FFFFFF" stroke-width="2" stroke-miterlimit="8" fill="#FFC000" fill-rule="evenodd"/><path d="M636.5 126.5C636.5 119.873 641.873 114.5 648.5 114.5L696.5 114.5C703.127 114.5 708.5 119.873 708.5 126.5L708.5 288.5C708.5 295.127 703.127 300.5 696.5 300.5L648.5 300.5C641.873 300.5 636.5 295.127 636.5 288.5Z" fill="#7F6000" fill-rule="evenodd"/><path d="M648.5 300.5C641.873 300.5 636.5 295.127 636.5 288.5L636.5 126.5C636.5 119.873 641.873 114.5 648.5 114.5M696.5 114.5C703.127 114.5 708.5 119.873 708.5 126.5L708.5 288.5C708.5 295.127 703.127 300.5 696.5 300.5" stroke="#000000" stroke-width="0.666667" stroke-miterlimit="8" fill="none" fill-rule="evenodd"/><path d="M636.5 327.334C636.5 323.56 639.56 320.5 643.333 320.5L701.667 320.5C705.441 320.5 708.5 323.56 708.5 327.334L708.5 354.667C708.5 358.441 705.441 361.5 701.667 361.5L643.333 361.5C639.56 361.5 636.5 358.441 636.5 354.667Z" fill="#7F6000" fill-rule="evenodd"/><path d="M643.333 361.5C639.56 361.5 636.5 358.441 636.5 354.667L636.5 327.334C636.5 323.56 639.56 320.5 643.333 320.5M701.667 320.5C705.441 320.5 708.5 323.56 708.5 327.334L708.5 354.667C708.5 358.441 705.441 361.5 701.667 361.5" stroke="#000000" stroke-width="0.666667" stroke-miterlimit="8" fill="none" fill-rule="evenodd"/><path d="M379.5 107.001C379.5 77.4534 403.453 53.5001 433.001 53.5001L646.999 53.5001C676.547 53.5001 700.5 77.4534 700.5 107.001L700.5 610.999C700.5 640.547 676.547 664.5 646.999 664.5L433.001 664.5C403.453 664.5 379.5 640.547 379.5 610.999Z" stroke="#6C4F00" stroke-width="1.33333" stroke-miterlimit="8" fill="#7F6000" fill-rule="evenodd"/><path d="M396 117.168C396 90.5654 417.565 69 444.168 69L636.832 69C663.435 69 685 90.5654 685 117.168L685 600.832C685 627.435 663.435 649 636.832 649L444.168 649C417.565 649 396 627.435 396 600.832Z" stroke="#FFFFFF" stroke-width="2" stroke-miterlimit="8" fill="#BF9000" fill-rule="evenodd"/><path d="M551.273 53.1172C554.725 61.0539 551.09 70.2868 543.153 73.7392 535.216 77.1917 525.983 73.5564 522.531 65.6197 520.873 61.8083 520.797 57.4944 522.32 53.627Z" stroke="#172C51" stroke-width="1.33333" stroke-miterlimit="8" fill="#7F6000" fill-rule="evenodd"/><path d="M741.5 121.334C741.5 114.798 746.798 109.5 753.334 109.5L800.667 109.5C807.202 109.5 812.5 114.798 812.5 121.334L812.5 283.667C812.5 290.202 807.202 295.5 800.667 295.5L753.334 295.5C746.798 295.5 741.5 290.202 741.5 283.667Z" fill="#002060" fill-rule="evenodd"/><path d="M753.334 295.5C746.798 295.5 741.5 290.202 741.5 283.667L741.5 121.334C741.5 114.798 746.798 109.5 753.334 109.5M800.667 109.5C807.202 109.5 812.5 114.798 812.5 121.334L812.5 283.667C812.5 290.202 807.202 295.5 800.667 295.5" stroke="#000000" stroke-width="0.666667" stroke-miterlimit="8" fill="none" fill-rule="evenodd"/><path d="M741.5 322.5C741.5 318.634 744.634 315.5 748.5 315.5L805.5 315.5C809.366 315.5 812.5 318.634 812.5 322.5L812.5 350.5C812.5 354.366 809.366 357.5 805.5 357.5L748.5 357.5C744.634 357.5 741.5 354.366 741.5 350.5Z" fill="#002060" fill-rule="evenodd"/><path d="M748.5 357.5C744.634 357.5 741.5 354.366 741.5 350.5L741.5 322.5C741.5 318.634 744.634 315.5 748.5 315.5M805.5 315.5C809.366 315.5 812.5 318.634 812.5 322.5L812.5 350.5C812.5 354.366 809.366 357.5 805.5 357.5" stroke="#000000" stroke-width="0.666667" stroke-miterlimit="8" fill="none" fill-rule="evenodd"/><path d="M484.5 101.835C484.5 72.3787 508.379 48.5001 537.835 48.5001L751.166 48.5001C780.621 48.5001 804.5 72.3787 804.5 101.835L804.5 607.166C804.5 636.621 780.621 660.5 751.166 660.5L537.835 660.5C508.379 660.5 484.5 636.621 484.5 607.166Z" stroke="#6C4F00" stroke-width="1.33333" stroke-miterlimit="8" fill="#7030A0" fill-rule="evenodd"/><path d="M500 112.168C500 85.5654 521.565 64 548.168 64L740.832 64C767.435 64 789 85.5654 789 112.168L789 595.832C789 622.435 767.435 644 740.832 644L548.168 644C521.565 644 500 622.435 500 595.832Z" stroke="#FFFFFF" stroke-width="2" stroke-miterlimit="8" fill="#DFABE9" fill-rule="evenodd"/><path d="M655.59 48.4653C659.043 56.4021 655.407 65.6349 647.471 69.0874 639.534 72.5398 630.301 68.9046 626.848 60.9678 625.191 57.1564 625.115 52.8425 626.637 48.9751Z" stroke="#172C51" stroke-width="1.33333" stroke-miterlimit="8" fill="#DFABE9" fill-rule="evenodd"/><path d="M830.5 122.5C830.5 115.873 835.873 110.5 842.5 110.5L890.5 110.5C897.127 110.5 902.5 115.873 902.5 122.5L902.5 284.5C902.5 291.127 897.127 296.5 890.5 296.5L842.5 296.5C835.873 296.5 830.5 291.127 830.5 284.5Z" fill="#3B3838" fill-rule="evenodd"/><path d="M842.5 296.5C835.873 296.5 830.5 291.127 830.5 284.5L830.5 122.5C830.5 115.873 835.873 110.5 842.5 110.5M890.5 110.5C897.127 110.5 902.5 115.873 902.5 122.5L902.5 284.5C902.5 291.127 897.127 296.5 890.5 296.5" stroke="#000000" stroke-width="0.666667" stroke-miterlimit="8" fill="none" fill-rule="evenodd"/><path d="M830.5 323.334C830.5 319.56 833.56 316.5 837.333 316.5L895.667 316.5C899.441 316.5 902.5 319.56 902.5 323.334L902.5 350.667C902.5 354.441 899.441 357.5 895.667 357.5L837.333 357.5C833.56 357.5 830.5 354.441 830.5 350.667Z" fill="#404040" fill-rule="evenodd"/><path d="M837.333 357.5C833.56 357.5 830.5 354.441 830.5 350.667L830.5 323.334C830.5 319.56 833.56 316.5 837.333 316.5M895.667 316.5C899.441 316.5 902.5 319.56 902.5 323.334L902.5 350.667C902.5 354.441 899.441 357.5 895.667 357.5" stroke="#000000" stroke-width="0.666667" stroke-miterlimit="8" fill="none" fill-rule="evenodd"/><path d="M573.5 103.001C573.5 73.4534 597.453 49.5001 627.001 49.5001L840.999 49.5001C870.547 49.5001 894.5 73.4534 894.5 103.001L894.5 606.999C894.5 636.547 870.547 660.5 840.999 660.5L627.001 660.5C597.453 660.5 573.5 636.547 573.5 606.999Z" stroke="#6C4F00" stroke-width="1.33333" stroke-miterlimit="8" fill="#3B3838" fill-rule="evenodd"/><path d="M590 113.168C590 86.5654 611.565 65 638.168 65L830.832 65C857.435 65 879 86.5654 879 113.168L879 596.832C879 623.435 857.435 645 830.832 645L638.168 645C611.565 645 590 623.435 590 596.832Z" stroke="#FFFFFF" stroke-width="2" stroke-miterlimit="8" fill="#7F7F7F" fill-rule="evenodd"/><path d="M745.326 49.1215C748.779 57.0583 745.143 66.2911 737.206 69.7435 729.27 73.196 720.037 69.5608 716.584 61.624 714.927 57.8126 714.851 53.4987 716.373 49.6313Z" stroke="#172C51" stroke-width="1.33333" stroke-miterlimit="8" fill="#3B3838" fill-rule="evenodd"/><path d="M923.5 121.5C923.5 114.873 928.873 109.5 935.5 109.5L983.5 109.5C990.127 109.5 995.5 114.873 995.5 121.5L995.5 283.5C995.5 290.127 990.127 295.5 983.5 295.5L935.5 295.5C928.873 295.5 923.5 290.127 923.5 283.5Z" fill="#2E75B6" fill-rule="evenodd"/><path d="M935.5 295.5C928.873 295.5 923.5 290.127 923.5 283.5L923.5 121.5C923.5 114.873 928.873 109.5 935.5 109.5M983.5 109.5C990.127 109.5 995.5 114.873 995.5 121.5L995.5 283.5C995.5 290.127 990.127 295.5 983.5 295.5" stroke="#000000" stroke-width="0.666667" stroke-miterlimit="8" fill="none" fill-rule="evenodd"/><path d="M923.5 322.334C923.5 318.56 926.56 315.5 930.333 315.5L988.667 315.5C992.441 315.5 995.5 318.56 995.5 322.334L995.5 349.667C995.5 353.441 992.441 356.5 988.667 356.5L930.333 356.5C926.56 356.5 923.5 353.441 923.5 349.667Z" fill="#2E75B6" fill-rule="evenodd"/><path d="M930.333 356.5C926.56 356.5 923.5 353.441 923.5 349.667L923.5 322.334C923.5 318.56 926.56 315.5 930.333 315.5M988.667 315.5C992.441 315.5 995.5 318.56 995.5 322.334L995.5 349.667C995.5 353.441 992.441 356.5 988.667 356.5" stroke="#000000" stroke-width="0.666667" stroke-miterlimit="8" fill="none" fill-rule="evenodd"/><path d="M666.5 101.001C666.5 71.4533 690.453 47.5001 720.001 47.5001L933.999 47.5001C963.547 47.5001 987.5 71.4533 987.5 101.001L987.5 605.999C987.5 635.547 963.547 659.5 933.999 659.5L720.001 659.5C690.453 659.5 666.5 635.547 666.5 605.999Z" stroke="#6C4F00" stroke-width="1.33333" stroke-miterlimit="8" fill="#0070C0" fill-rule="evenodd"/><path d="M683 112.168C683 85.5654 704.565 64 731.168 64L923.832 64C950.435 64 972 85.5654 972 112.168L972 594.832C972 621.435 950.435 643 923.832 643L731.168 643C704.565 643 683 621.435 683 594.832Z" stroke="#FFFFFF" stroke-width="2" stroke-miterlimit="8" fill="#00B0F0" fill-rule="evenodd"/><path d="M838.239 47.6924C841.691 55.6292 838.056 64.862 830.119 68.3145 822.182 71.7669 812.949 68.1317 809.497 60.1949 807.839 56.3835 807.763 52.0696 809.286 48.2022Z" stroke="#172C51" stroke-width="1.33333" stroke-miterlimit="8" fill="#2E75B6" fill-rule="evenodd"/><path d="M1022.5 122.5C1022.5 115.873 1027.87 110.5 1034.5 110.5L1082.5 110.5C1089.13 110.5 1094.5 115.873 1094.5 122.5L1094.5 284.5C1094.5 291.127 1089.13 296.5 1082.5 296.5L1034.5 296.5C1027.87 296.5 1022.5 291.127 1022.5 284.5Z" fill="#385723" fill-rule="evenodd"/><path d="M1034.5 296.5C1027.87 296.5 1022.5 291.127 1022.5 284.5L1022.5 122.5C1022.5 115.873 1027.87 110.5 1034.5 110.5M1082.5 110.5C1089.13 110.5 1094.5 115.873 1094.5 122.5L1094.5 284.5C1094.5 291.127 1089.13 296.5 1082.5 296.5" stroke="#000000" stroke-width="0.666667" stroke-miterlimit="8" fill="none" fill-rule="evenodd"/><path d="M1022.5 323.334C1022.5 319.56 1025.56 316.5 1029.33 316.5L1087.67 316.5C1091.44 316.5 1094.5 319.56 1094.5 323.334L1094.5 350.667C1094.5 354.441 1091.44 357.5 1087.67 357.5L1029.33 357.5C1025.56 357.5 1022.5 354.441 1022.5 350.667Z" fill="#385723" fill-rule="evenodd"/><path d="M1029.33 357.5C1025.56 357.5 1022.5 354.441 1022.5 350.667L1022.5 323.334C1022.5 319.56 1025.56 316.5 1029.33 316.5M1087.67 316.5C1091.44 316.5 1094.5 319.56 1094.5 323.334L1094.5 350.667C1094.5 354.441 1091.44 357.5 1087.67 357.5" stroke="#000000" stroke-width="0.666667" stroke-miterlimit="8" fill="none" fill-rule="evenodd"/><path d="M765.5 103.001C765.5 73.4534 789.453 49.5001 819.001 49.5001L1033 49.5001C1062.55 49.5001 1086.5 73.4534 1086.5 103.001L1086.5 606.999C1086.5 636.547 1062.55 660.5 1033 660.5L819.001 660.5C789.453 660.5 765.5 636.547 765.5 606.999Z" stroke="#6C4F00" stroke-width="1.33333" stroke-miterlimit="8" fill="#385723" fill-rule="evenodd"/><path d="M782 113.168C782 86.5654 803.565 65 830.168 65L1022.83 65C1049.43 65 1071 86.5654 1071 113.168L1071 596.832C1071 623.435 1049.43 645 1022.83 645L830.168 645C803.565 645 782 623.435 782 596.832Z" stroke="#FFFFFF" stroke-width="2" stroke-miterlimit="8" fill="#548235" fill-rule="evenodd"/><path d="M937.282 49.0122C940.734 56.949 937.099 66.1818 929.162 69.6343 921.225 73.0867 911.992 69.4515 908.54 61.5147 906.882 57.7033 906.806 53.3894 908.329 49.522Z" stroke="#172C51" stroke-width="1.33333" stroke-miterlimit="8" fill="#385723" fill-rule="evenodd"/><path d="M1110.5 124.334C1110.5 117.798 1115.8 112.5 1122.33 112.5L1169.67 112.5C1176.2 112.5 1181.5 117.798 1181.5 124.334L1181.5 286.667C1181.5 293.202 1176.2 298.5 1169.67 298.5L1122.33 298.5C1115.8 298.5 1110.5 293.202 1110.5 286.667Z" fill="#A9D18E" fill-rule="evenodd"/><path d="M1122.33 298.5C1115.8 298.5 1110.5 293.202 1110.5 286.667L1110.5 124.334C1110.5 117.798 1115.8 112.5 1122.33 112.5M1169.67 112.5C1176.2 112.5 1181.5 117.798 1181.5 124.334L1181.5 286.667C1181.5 293.202 1176.2 298.5 1169.67 298.5" stroke="#000000" stroke-width="0.666667" stroke-miterlimit="8" fill="none" fill-rule="evenodd"/><path d="M1110.5 325.5C1110.5 321.634 1113.63 318.5 1117.5 318.5L1174.5 318.5C1178.37 318.5 1181.5 321.634 1181.5 325.5L1181.5 353.5C1181.5 357.366 1178.37 360.5 1174.5 360.5L1117.5 360.5C1113.63 360.5 1110.5 357.366 1110.5 353.5Z" fill="#A9D18E" fill-rule="evenodd"/><path d="M1117.5 360.5C1113.63 360.5 1110.5 357.366 1110.5 353.5L1110.5 325.5C1110.5 321.634 1113.63 318.5 1117.5 318.5M1174.5 318.5C1178.37 318.5 1181.5 321.634 1181.5 325.5L1181.5 353.5C1181.5 357.366 1178.37 360.5 1174.5 360.5" stroke="#000000" stroke-width="0.666667" stroke-miterlimit="8" fill="none" fill-rule="evenodd"/><path d="M853.5 104.835C853.5 75.3787 877.379 51.5001 906.835 51.5001L1120.17 51.5001C1149.62 51.5001 1173.5 75.3787 1173.5 104.835L1173.5 610.166C1173.5 639.621 1149.62 663.5 1120.17 663.5L906.835 663.5C877.379 663.5 853.5 639.621 853.5 610.166Z" stroke="#6C4F00" stroke-width="1.33333" stroke-miterlimit="8" fill="#A9D18E" fill-rule="evenodd"/><path d="M869 115.168C869 88.5654 890.565 67 917.168 67L1109.83 67C1136.43 67 1158 88.5654 1158 115.168L1158 598.832C1158 625.435 1136.43 647 1109.83 647L917.168 647C890.565 647 869 625.435 869 598.832Z" stroke="#FFFFFF" stroke-width="2" stroke-miterlimit="8" fill="#C5E0B4" fill-rule="evenodd"/><path d="M1024.65 51.4383C1028.1 59.3751 1024.47 68.6079 1016.53 72.0604 1008.59 75.5129 999.362 71.8776 995.91 63.9408 994.252 60.1294 994.176 55.8155 995.698 51.9481Z" stroke="#172C51" stroke-width="1.33333" stroke-miterlimit="8" fill="#A9D18E" fill-rule="evenodd"/><path d="M1192.5 124.334C1192.5 117.798 1197.8 112.5 1204.33 112.5L1251.67 112.5C1258.2 112.5 1263.5 117.798 1263.5 124.334L1263.5 286.667C1263.5 293.202 1258.2 298.5 1251.67 298.5L1204.33 298.5C1197.8 298.5 1192.5 293.202 1192.5 286.667Z" fill="#F8CBAD" fill-rule="evenodd"/><path d="M1204.33 298.5C1197.8 298.5 1192.5 293.202 1192.5 286.667L1192.5 124.334C1192.5 117.798 1197.8 112.5 1204.33 112.5M1251.67 112.5C1258.2 112.5 1263.5 117.798 1263.5 124.334L1263.5 286.667C1263.5 293.202 1258.2 298.5 1251.67 298.5" stroke="#000000" stroke-width="0.666667" stroke-miterlimit="8" fill="none" fill-rule="evenodd"/><path d="M1192.5 325.5C1192.5 321.634 1195.63 318.5 1199.5 318.5L1256.5 318.5C1260.37 318.5 1263.5 321.634 1263.5 325.5L1263.5 353.5C1263.5 357.366 1260.37 360.5 1256.5 360.5L1199.5 360.5C1195.63 360.5 1192.5 357.366 1192.5 353.5Z" fill="#F8CBAD" fill-rule="evenodd"/><path d="M1199.5 360.5C1195.63 360.5 1192.5 357.366 1192.5 353.5L1192.5 325.5C1192.5 321.634 1195.63 318.5 1199.5 318.5M1256.5 318.5C1260.37 318.5 1263.5 321.634 1263.5 325.5L1263.5 353.5C1263.5 357.366 1260.37 360.5 1256.5 360.5" stroke="#000000" stroke-width="0.666667" stroke-miterlimit="8" fill="none" fill-rule="evenodd"/><path d="M935.5 104.834C935.5 75.3786 959.379 51.5001 988.834 51.5001L1202.17 51.5001C1231.62 51.5001 1255.5 75.3786 1255.5 104.834L1255.5 609.166C1255.5 638.621 1231.62 662.5 1202.17 662.5L988.834 662.5C959.379 662.5 935.5 638.621 935.5 609.166Z" stroke="#6C4F00" stroke-width="1.33333" stroke-miterlimit="8" fill="#F8CBAD" fill-rule="evenodd"/><path d="M951 115.168C951 88.5654 972.565 67 999.168 67L1191.83 67C1218.43 67 1240 88.5654 1240 115.168L1240 598.832C1240 625.435 1218.43 647 1191.83 647L999.168 647C972.565 647 951 625.435 951 598.832Z" stroke="#FFFFFF" stroke-width="2" stroke-miterlimit="8" fill="#FBE5D6" fill-rule="evenodd"/><path d="M1106.62 50.722C1110.07 58.6588 1106.43 67.8916 1098.5 71.3441 1090.56 74.7965 1081.33 71.1613 1077.88 63.2245 1076.22 59.4131 1076.14 55.0992 1077.66 51.2318Z" stroke="#172C51" stroke-width="1.33333" stroke-miterlimit="8" fill="#F8CBAD" fill-rule="evenodd"/></g></svg>