<svg width="1280" height="720" xmlns="http://www.w3.org/2000/svg" xmlns:xlink="http://www.w3.org/1999/xlink" overflow="hidden"><defs><linearGradient x1="584.537" y1="231.878" x2="24.463" y2="133.122" gradientUnits="userSpaceOnUse" spreadMethod="reflect" id="fill0"><stop offset="0" stop-color="#D9D9D9"/><stop offset="0.027027" stop-color="#DADAD8"/><stop offset="0.0540541" stop-color="#DCDBD8"/><stop offset="0.0810811" stop-color="#DEDCD8"/><stop offset="0.108108" stop-color="#E0DDD8"/><stop offset="0.135135" stop-color="#E2DED8"/><stop offset="0.162162" stop-color="#E3E0D8"/><stop offset="0.189189" stop-color="#E5E1D8"/><stop offset="0.216216" stop-color="#E6E2D8"/><stop offset="0.243243" stop-color="#E8E3D8"/><stop offset="0.27027" stop-color="#E9E4D7"/><stop offset="0.297297" stop-color="#EBE5D7"/><stop offset="0.324324" stop-color="#ECE6D7"/><stop offset="0.351351" stop-color="#EEE6D7"/><stop offset="0.378378" stop-color="#EFE7D6"/><stop offset="0.405405" stop-color="#F0E8D6"/><stop offset="0.432432" stop-color="#F1E9D6"/><stop offset="0.459459" stop-color="#F3EAD5"/><stop offset="0.486486" stop-color="#F4EAD5"/><stop offset="0.513514" stop-color="#F5EBD5"/><stop offset="0.540541" stop-color="#F6ECD4"/><stop offset="0.567568" stop-color="#F7ECD4"/><stop offset="0.594595" stop-color="#F8EDD4"/><stop offset="0.621622" stop-color="#F8EDD3"/><stop offset="0.648649" stop-color="#F9EED3"/><stop offset="0.675676" stop-color="#FAEED2"/><stop offset="0.702703" stop-color="#FBEFD2"/><stop offset="0.72973" stop-color="#FBEFD1"/><stop offset="0.756757" stop-color="#FCF0D1"/><stop offset="0.783784" stop-color="#FCF0D0"/><stop offset="0.810811" stop-color="#FDF0D0"/><stop offset="0.837838" stop-color="#FDF1CF"/><stop offset="0.864865" stop-color="#FEF1CF"/><stop offset="0.891892" stop-color="#FEF1CE"/><stop offset="0.918919" stop-color="#FEF1CD"/><stop offset="0.945946" stop-color="#FEF1CD"/><stop offset="0.972973" stop-color="#FEF1CC"/><stop offset="1" stop-color="#FFF2CC"/></linearGradient><linearGradient x1="585.537" y1="586.878" x2="25.463" y2="488.122" gradientUnits="userSpaceOnUse" spreadMethod="reflect" id="fill1"><stop offset="0" stop-color="#D9D9D9"/><stop offset="0.027027" stop-color="#DADAD8"/><stop offset="0.0540541" stop-color="#DCDBD8"/><stop offset="0.0810811" stop-color="#DEDCD8"/><stop offset="0.108108" stop-color="#E0DDD8"/><stop offset="0.135135" stop-color="#E2DED8"/><stop offset="0.162162" stop-color="#E3E0D8"/><stop offset="0.189189" stop-color="#E5E1D8"/><stop offset="0.216216" stop-color="#E6E2D8"/><stop offset="0.243243" stop-color="#E8E3D8"/><stop offset="0.27027" stop-color="#E9E4D7"/><stop offset="0.297297" stop-color="#EBE5D7"/><stop offset="0.324324" stop-color="#ECE6D7"/><stop offset="0.351351" stop-color="#EEE6D7"/><stop offset="0.378378" stop-color="#EFE7D6"/><stop offset="0.405405" stop-color="#F0E8D6"/><stop offset="0.432432" stop-color="#F1E9D6"/><stop offset="0.459459" stop-color="#F3EAD5"/><stop offset="0.486486" stop-color="#F4EAD5"/><stop offset="0.513514" stop-color="#F5EBD5"/><stop offset="0.540541" stop-color="#F6ECD4"/><stop offset="0.567568" stop-color="#F7ECD4"/><stop offset="0.594595" stop-color="#F8EDD4"/><stop offset="0.621622" stop-color="#F8EDD3"/><stop offset="0.648649" stop-color="#F9EED3"/><stop offset="0.675676" stop-color="#FAEED2"/><stop offset="0.702703" stop-color="#FBEFD2"/><stop offset="0.72973" stop-color="#FBEFD1"/><stop offset="0.756757" stop-color="#FCF0D1"/><stop offset="0.783784" stop-color="#FCF0D0"/><stop offset="0.810811" stop-color="#FDF0D0"/><stop offset="0.837838" stop-color="#FDF1CF"/><stop offset="0.864865" stop-color="#FEF1CF"/><stop offset="0.891892" stop-color="#FEF1CE"/><stop offset="0.918919" stop-color="#FEF1CD"/><stop offset="0.945946" stop-color="#FEF1CD"/><stop offset="0.972973" stop-color="#FEF1CC"/><stop offset="1" stop-color="#FFF2CC"/></linearGradient><linearGradient x1="1248.54" y1="228.878" x2="688.463" y2="130.122" gradientUnits="userSpaceOnUse" spreadMethod="reflect" id="fill2"><stop offset="0" stop-color="#D9D9D9"/><stop offset="0.027027" stop-color="#DADAD8"/><stop offset="0.0540541" stop-color="#DCDBD8"/><stop offset="0.0810811" stop-color="#DEDCD8"/><stop offset="0.108108" stop-color="#E0DDD8"/><stop offset="0.135135" stop-color="#E2DED8"/><stop offset="0.162162" stop-color="#E3E0D8"/><stop offset="0.189189" stop-color="#E5E1D8"/><stop offset="0.216216" stop-color="#E6E2D8"/><stop offset="0.243243" stop-color="#E8E3D8"/><stop offset="0.27027" stop-color="#E9E4D7"/><stop offset="0.297297" stop-color="#EBE5D7"/><stop offset="0.324324" stop-color="#ECE6D7"/><stop offset="0.351351" stop-color="#EEE6D7"/><stop offset="0.378378" stop-color="#EFE7D6"/><stop offset="0.405405" stop-color="#F0E8D6"/><stop offset="0.432432" stop-color="#F1E9D6"/><stop offset="0.459459" stop-color="#F3EAD5"/><stop offset="0.486486" stop-color="#F4EAD5"/><stop offset="0.513514" stop-color="#F5EBD5"/><stop offset="0.540541" stop-color="#F6ECD4"/><stop offset="0.567568" stop-color="#F7ECD4"/><stop offset="0.594595" stop-color="#F8EDD4"/><stop offset="0.621622" stop-color="#F8EDD3"/><stop offset="0.648649" stop-color="#F9EED3"/><stop offset="0.675676" stop-color="#FAEED2"/><stop offset="0.702703" stop-color="#FBEFD2"/><stop offset="0.72973" stop-color="#FBEFD1"/><stop offset="0.756757" stop-color="#FCF0D1"/><stop offset="0.783784" stop-color="#FCF0D0"/><stop offset="0.810811" stop-color="#FDF0D0"/><stop offset="0.837838" stop-color="#FDF1CF"/><stop offset="0.864865" stop-color="#FEF1CF"/><stop offset="0.891892" stop-color="#FEF1CE"/><stop offset="0.918919" stop-color="#FEF1CD"/><stop offset="0.945946" stop-color="#FEF1CD"/><stop offset="0.972973" stop-color="#FEF1CC"/><stop offset="1" stop-color="#FFF2CC"/></linearGradient><linearGradient x1="1248.54" y1="584.878" x2="688.463" y2="486.122" gradientUnits="userSpaceOnUse" spreadMethod="reflect" id="fill3"><stop offset="0" stop-color="#D9D9D9"/><stop offset="0.027027" stop-color="#DADAD8"/><stop offset="0.0540541" stop-color="#DCDBD8"/><stop offset="0.0810811" stop-color="#DEDCD8"/><stop offset="0.108108" stop-color="#E0DDD8"/><stop offset="0.135135" stop-color="#E2DED8"/><stop offset="0.162162" stop-color="#E3E0D8"/><stop offset="0.189189" stop-color="#E5E1D8"/><stop offset="0.216216" stop-color="#E6E2D8"/><stop offset="0.243243" stop-color="#E8E3D8"/><stop offset="0.27027" stop-color="#E9E4D7"/><stop offset="0.297297" stop-color="#EBE5D7"/><stop offset="0.324324" stop-color="#ECE6D7"/><stop offset="0.351351" stop-color="#EEE6D7"/><stop offset="0.378378" stop-color="#EFE7D6"/><stop offset="0.405405" stop-color="#F0E8D6"/><stop offset="0.432432" stop-color="#F1E9D6"/><stop offset="0.459459" stop-color="#F3EAD5"/><stop offset="0.486486" stop-color="#F4EAD5"/><stop offset="0.513514" stop-color="#F5EBD5"/><stop offset="0.540541" stop-color="#F6ECD4"/><stop offset="0.567568" stop-color="#F7ECD4"/><stop offset="0.594595" stop-color="#F8EDD4"/><stop offset="0.621622" stop-color="#F8EDD3"/><stop offset="0.648649" stop-color="#F9EED3"/><stop offset="0.675676" stop-color="#FAEED2"/><stop offset="0.702703" stop-color="#FBEFD2"/><stop offset="0.72973" stop-color="#FBEFD1"/><stop offset="0.756757" stop-color="#FCF0D1"/><stop offset="0.783784" stop-color="#FCF0D0"/><stop offset="0.810811" stop-color="#FDF0D0"/><stop offset="0.837838" stop-color="#FDF1CF"/><stop offset="0.864865" stop-color="#FEF1CF"/><stop offset="0.891892" stop-color="#FEF1CE"/><stop offset="0.918919" stop-color="#FEF1CD"/><stop offset="0.945946" stop-color="#FEF1CD"/><stop offset="0.972973" stop-color="#FEF1CC"/><stop offset="1" stop-color="#FFF2CC"/></linearGradient><linearGradient x1="927.537" y1="385.878" x2="367.463" y2="287.122" gradientUnits="userSpaceOnUse" spreadMethod="reflect" id="fill4"><stop offset="0" stop-color="#D9D9D9"/><stop offset="0.027027" stop-color="#DADAD8"/><stop offset="0.0540541" stop-color="#DCDBD8"/><stop offset="0.0810811" stop-color="#DEDCD8"/><stop offset="0.108108" stop-color="#E0DDD8"/><stop offset="0.135135" stop-color="#E2DED8"/><stop offset="0.162162" stop-color="#E3E0D8"/><stop offset="0.189189" stop-color="#E5E1D8"/><stop offset="0.216216" stop-color="#E6E2D8"/><stop offset="0.243243" stop-color="#E8E3D8"/><stop offset="0.27027" stop-color="#E9E4D7"/><stop offset="0.297297" stop-color="#EBE5D7"/><stop offset="0.324324" stop-color="#ECE6D7"/><stop offset="0.351351" stop-color="#EEE6D7"/><stop offset="0.378378" stop-color="#EFE7D6"/><stop offset="0.405405" stop-color="#F0E8D6"/><stop offset="0.432432" stop-color="#F1E9D6"/><stop offset="0.459459" stop-color="#F3EAD5"/><stop offset="0.486486" stop-color="#F4EAD5"/><stop offset="0.513514" stop-color="#F5EBD5"/><stop offset="0.540541" stop-color="#F6ECD4"/><stop offset="0.567568" stop-color="#F7ECD4"/><stop offset="0.594595" stop-color="#F8EDD4"/><stop offset="0.621622" stop-color="#F8EDD3"/><stop offset="0.648649" stop-color="#F9EED3"/><stop offset="0.675676" stop-color="#FAEED2"/><stop offset="0.702703" stop-color="#FBEFD2"/><stop offset="0.72973" stop-color="#FBEFD1"/><stop offset="0.756757" stop-color="#FCF0D1"/><stop offset="0.783784" stop-color="#FCF0D0"/><stop offset="0.810811" stop-color="#FDF0D0"/><stop offset="0.837838" stop-color="#FDF1CF"/><stop offset="0.864865" stop-color="#FEF1CF"/><stop offset="0.891892" stop-color="#FEF1CE"/><stop offset="0.918919" stop-color="#FEF1CD"/><stop offset="0.945946" stop-color="#FEF1CD"/><stop offset="0.972973" stop-color="#FEF1CC"/><stop offset="1" stop-color="#FFF2CC"/></linearGradient></defs><g><rect x="0" y="0" width="1280" height="720" fill="#FFFFFF" fill-opacity="0"/><rect x="41.5001" y="36.5001" width="526" height="292" stroke="#A5A5A5" stroke-width="0.666667" stroke-miterlimit="8" fill="url(#fill0)"/><rect x="244.5" y="328.5" width="113" height="25" stroke="#172C51" stroke-width="1.33333" stroke-miterlimit="8" fill="#DFABE9"/><g><g><g><path d="M506.521 432.396 86.4792 432.396 86.4792 160.604 506.521 160.604 506.521 432.396ZM327.385 457.104 265.615 457.104C261.908 457.104 259.438 454.633 259.438 450.927 259.438 447.221 261.908 444.75 265.615 444.75L327.385 444.75C331.092 444.75 333.562 447.221 333.562 450.927 333.562 454.633 331.092 457.104 327.385 457.104ZM296.5 135.896C300.206 135.896 302.677 138.367 302.677 142.073 302.677 145.779 300.206 148.25 296.5 148.25 292.794 148.25 290.323 145.779 290.323 142.073 290.323 138.367 292.794 135.896 296.5 135.896ZM518.875 123.542 74.125 123.542C60.5354 123.542 49.4167 134.66 49.4167 148.25L49.4167 444.75C49.4167 458.34 60.5354 469.458 74.125 469.458L518.875 469.458C532.465 469.458 543.583 458.34 543.583 444.75L543.583 148.25C543.583 134.66 532.465 123.542 518.875 123.542Z" fill="#7030A0" transform="matrix(1.19562 0 0 1 -48 -112)"/></g></g></g><rect x="42.5001" y="391.5" width="526" height="292" stroke="#A5A5A5" stroke-width="0.666667" stroke-miterlimit="8" fill="url(#fill1)"/><rect x="245.5" y="683.5" width="113" height="25" stroke="#172C51" stroke-width="1.33333" stroke-miterlimit="8" fill="#E2F0D9"/><g><g><g><path d="M506.521 432.396 86.4792 432.396 86.4792 160.604 506.521 160.604 506.521 432.396ZM327.385 457.104 265.615 457.104C261.908 457.104 259.438 454.633 259.438 450.927 259.438 447.221 261.908 444.75 265.615 444.75L327.385 444.75C331.092 444.75 333.562 447.221 333.562 450.927 333.562 454.633 331.092 457.104 327.385 457.104ZM296.5 135.896C300.206 135.896 302.677 138.367 302.677 142.073 302.677 145.779 300.206 148.25 296.5 148.25 292.794 148.25 290.323 145.779 290.323 142.073 290.323 138.367 292.794 135.896 296.5 135.896ZM518.875 123.542 74.125 123.542C60.5354 123.542 49.4167 134.66 49.4167 148.25L49.4167 444.75C49.4167 458.34 60.5354 469.458 74.125 469.458L518.875 469.458C532.465 469.458 543.583 458.34 543.583 444.75L543.583 148.25C543.583 134.66 532.465 123.542 518.875 123.542Z" fill="#A9D18E" transform="matrix(1.19562 0 0 1 -47 243)"/></g></g></g><rect x="705.5" y="33.5001" width="526" height="292" stroke="#A5A5A5" stroke-width="0.666667" stroke-miterlimit="8" fill="url(#fill2)"/><rect x="908.5" y="325.5" width="114" height="25" stroke="#172C51" stroke-width="1.33333" stroke-miterlimit="8" fill="#F4B183"/><g><g><g><path d="M506.521 432.396 86.4792 432.396 86.4792 160.604 506.521 160.604 506.521 432.396ZM327.385 457.104 265.615 457.104C261.908 457.104 259.438 454.633 259.438 450.927 259.438 447.221 261.908 444.75 265.615 444.75L327.385 444.75C331.092 444.75 333.562 447.221 333.562 450.927 333.562 454.633 331.092 457.104 327.385 457.104ZM296.5 135.896C300.206 135.896 302.677 138.367 302.677 142.073 302.677 145.779 300.206 148.25 296.5 148.25 292.794 148.25 290.323 145.779 290.323 142.073 290.323 138.367 292.794 135.896 296.5 135.896ZM518.875 123.542 74.125 123.542C60.5354 123.542 49.4167 134.66 49.4167 148.25L49.4167 444.75C49.4167 458.34 60.5354 469.458 74.125 469.458L518.875 469.458C532.465 469.458 543.583 458.34 543.583 444.75L543.583 148.25C543.583 134.66 532.465 123.542 518.875 123.542Z" fill="#C00000" transform="matrix(1.19562 0 0 1 616 -115)"/></g></g></g><rect x="705.5" y="389.5" width="526" height="292" stroke="#A5A5A5" stroke-width="0.666667" stroke-miterlimit="8" fill="url(#fill3)"/><rect x="908.5" y="681.5" width="114" height="25" stroke="#172C51" stroke-width="1.33333" stroke-miterlimit="8" fill="#BDD7EE"/><g><g><g><path d="M506.521 432.396 86.4792 432.396 86.4792 160.604 506.521 160.604 506.521 432.396ZM327.385 457.104 265.615 457.104C261.908 457.104 259.438 454.633 259.438 450.927 259.438 447.221 261.908 444.75 265.615 444.75L327.385 444.75C331.092 444.75 333.562 447.221 333.562 450.927 333.562 454.633 331.092 457.104 327.385 457.104ZM296.5 135.896C300.206 135.896 302.677 138.367 302.677 142.073 302.677 145.779 300.206 148.25 296.5 148.25 292.794 148.25 290.323 145.779 290.323 142.073 290.323 138.367 292.794 135.896 296.5 135.896ZM518.875 123.542 74.125 123.542C60.5354 123.542 49.4167 134.66 49.4167 148.25L49.4167 444.75C49.4167 458.34 60.5354 469.458 74.125 469.458L518.875 469.458C532.465 469.458 543.583 458.34 543.583 444.75L543.583 148.25C543.583 134.66 532.465 123.542 518.875 123.542Z" fill="#00B0F0" transform="matrix(1.19562 0 0 1 616 241)"/></g></g></g><rect x="384.5" y="190.5" width="526" height="292" stroke="#A5A5A5" stroke-width="0.666667" stroke-miterlimit="8" fill="url(#fill4)"/><rect x="587.5" y="482.5" width="114" height="26" stroke="#172C51" stroke-width="1.33333" stroke-miterlimit="8" fill="#FBE5D6"/><g><g><g><path d="M506.521 432.396 86.4792 432.396 86.4792 160.604 506.521 160.604 506.521 432.396ZM327.385 457.104 265.615 457.104C261.908 457.104 259.438 454.633 259.438 450.927 259.438 447.221 261.908 444.75 265.615 444.75L327.385 444.75C331.092 444.75 333.562 447.221 333.562 450.927 333.562 454.633 331.092 457.104 327.385 457.104ZM296.5 135.896C300.206 135.896 302.677 138.367 302.677 142.073 302.677 145.779 300.206 148.25 296.5 148.25 292.794 148.25 290.323 145.779 290.323 142.073 290.323 138.367 292.794 135.896 296.5 135.896ZM518.875 123.542 74.125 123.542C60.5354 123.542 49.4167 134.66 49.4167 148.25L49.4167 444.75C49.4167 458.34 60.5354 469.458 74.125 469.458L518.875 469.458C532.465 469.458 543.583 458.34 543.583 444.75L543.583 148.25C543.583 134.66 532.465 123.542 518.875 123.542Z" fill="#DFABE9" transform="matrix(1.19562 0 0 1 295 42)"/></g></g></g></g></svg>