<svg width="1280" height="720" xmlns="http://www.w3.org/2000/svg" xmlns:xlink="http://www.w3.org/1999/xlink" overflow="hidden"><defs><linearGradient x1="918.623" y1="407.393" x2="358.378" y2="308.607" gradientUnits="userSpaceOnUse" spreadMethod="reflect" id="fill0"><stop offset="0" stop-color="#D9D9D9"/><stop offset="0.027027" stop-color="#DADAD8"/><stop offset="0.0540541" stop-color="#DCDBD8"/><stop offset="0.0810811" stop-color="#DEDCD8"/><stop offset="0.108108" stop-color="#E0DDD8"/><stop offset="0.135135" stop-color="#E2DED8"/><stop offset="0.162162" stop-color="#E3E0D8"/><stop offset="0.189189" stop-color="#E5E1D8"/><stop offset="0.216216" stop-color="#E6E2D8"/><stop offset="0.243243" stop-color="#E8E3D8"/><stop offset="0.27027" stop-color="#E9E4D7"/><stop offset="0.297297" stop-color="#EBE5D7"/><stop offset="0.324324" stop-color="#ECE6D7"/><stop offset="0.351351" stop-color="#EEE6D7"/><stop offset="0.378378" stop-color="#EFE7D6"/><stop offset="0.405405" stop-color="#F0E8D6"/><stop offset="0.432432" stop-color="#F1E9D6"/><stop offset="0.459459" stop-color="#F3EAD5"/><stop offset="0.486486" stop-color="#F4EAD5"/><stop offset="0.513514" stop-color="#F5EBD5"/><stop offset="0.540541" stop-color="#F6ECD4"/><stop offset="0.567568" stop-color="#F7ECD4"/><stop offset="0.594595" stop-color="#F8EDD4"/><stop offset="0.621622" stop-color="#F8EDD3"/><stop offset="0.648649" stop-color="#F9EED3"/><stop offset="0.675676" stop-color="#FAEED2"/><stop offset="0.702703" stop-color="#FBEFD2"/><stop offset="0.72973" stop-color="#FBEFD1"/><stop offset="0.756757" stop-color="#FCF0D1"/><stop offset="0.783784" stop-color="#FCF0D0"/><stop offset="0.810811" stop-color="#FDF0D0"/><stop offset="0.837838" stop-color="#FDF1CF"/><stop offset="0.864865" stop-color="#FEF1CF"/><stop offset="0.891892" stop-color="#FEF1CE"/><stop offset="0.918919" stop-color="#FEF1CD"/><stop offset="0.945946" stop-color="#FEF1CD"/><stop offset="0.972973" stop-color="#FEF1CC"/><stop offset="1" stop-color="#FFF2CC"/></linearGradient></defs><g><rect x="0" y="0" width="1280" height="720" fill="#FFFFFF" fill-opacity="0"/><rect x="375.5" y="211.5" width="526" height="293" stroke="#A5A5A5" stroke-width="0.666667" stroke-miterlimit="8" fill="url(#fill0)"/><rect x="577.5" y="504.5" width="114" height="25" stroke="#172C51" stroke-width="1.33333" stroke-miterlimit="8" fill="#FBE5D6"/><g><g><g><path d="M507.375 433.125 86.625 433.125 86.625 160.875 507.375 160.875 507.375 433.125ZM327.938 457.875 266.062 457.875C262.35 457.875 259.875 455.4 259.875 451.688 259.875 447.975 262.35 445.5 266.062 445.5L327.938 445.5C331.65 445.5 334.125 447.975 334.125 451.688 334.125 455.4 331.65 457.875 327.938 457.875ZM297 136.125C300.712 136.125 303.188 138.6 303.188 142.312 303.188 146.025 300.712 148.5 297 148.5 293.288 148.5 290.812 146.025 290.812 142.312 290.812 138.6 293.288 136.125 297 136.125ZM519.75 123.75 74.25 123.75C60.6375 123.75 49.5 134.887 49.5 148.5L49.5 445.5C49.5 459.112 60.6375 470.25 74.25 470.25L519.75 470.25C533.362 470.25 544.5 459.112 544.5 445.5L544.5 148.5C544.5 134.887 533.362 123.75 519.75 123.75Z" fill="#F4B183" transform="matrix(1.19192 0 0 1 286 63)"/></g></g></g></g></svg>