<svg width="1280" height="720" xmlns="http://www.w3.org/2000/svg" xmlns:xlink="http://www.w3.org/1999/xlink" overflow="hidden"><defs><linearGradient x1="640.5" y1="38.5001" x2="640.5" y2="649.5" gradientUnits="userSpaceOnUse" spreadMethod="reflect" id="fill0"><stop offset="0" stop-color="#6083CB"/><stop offset="0.5" stop-color="#3E70CA"/><stop offset="1" stop-color="#2E61BA"/></linearGradient><linearGradient x1="641" y1="54.5001" x2="641" y2="634.5" gradientUnits="userSpaceOnUse" spreadMethod="reflect" id="fill1"><stop offset="0" stop-color="#6083CB"/><stop offset="0.5" stop-color="#3E70CA"/><stop offset="1" stop-color="#2E61BA"/></linearGradient></defs><g><rect x="0" y="0" width="1280" height="720" fill="#FFFFFF" fill-opacity="0"/><path d="M737.5 111.334C737.5 104.798 742.798 99.5001 749.334 99.5001L796.667 99.5001C803.202 99.5001 808.5 104.798 808.5 111.334L808.5 273.667C808.5 280.202 803.202 285.5 796.667 285.5L749.334 285.5C742.798 285.5 737.5 280.202 737.5 273.667Z" fill="#2F5597" fill-rule="evenodd"/><path d="M749.334 285.5C742.798 285.5 737.5 280.202 737.5 273.667L737.5 111.334C737.5 104.798 742.798 99.5001 749.334 99.5001M796.667 99.5001C803.202 99.5001 808.5 104.798 808.5 111.334L808.5 273.667C808.5 280.202 803.202 285.5 796.667 285.5" stroke="#000000" stroke-width="0.666667" stroke-miterlimit="8" fill="none" fill-rule="evenodd"/><path d="M737.5 312.333C737.5 308.56 740.56 305.5 744.333 305.5L801.667 305.5C805.441 305.5 808.5 308.56 808.5 312.333L808.5 339.667C808.5 343.441 805.441 346.5 801.667 346.5L744.333 346.5C740.56 346.5 737.5 343.441 737.5 339.667Z" fill="#2F5597" fill-rule="evenodd"/><path d="M744.333 346.5C740.56 346.5 737.5 343.441 737.5 339.667L737.5 312.333C737.5 308.56 740.56 305.5 744.333 305.5M801.667 305.5C805.441 305.5 808.5 308.56 808.5 312.333L808.5 339.667C808.5 343.441 805.441 346.5 801.667 346.5" stroke="#000000" stroke-width="0.666667" stroke-miterlimit="8" fill="none" fill-rule="evenodd"/><path d="M480.5 91.8343C480.5 62.3786 504.379 38.5001 533.834 38.5001L747.166 38.5001C776.621 38.5001 800.5 62.3786 800.5 91.8343L800.5 596.166C800.5 625.621 776.621 649.5 747.166 649.5L533.834 649.5C504.379 649.5 480.5 625.621 480.5 596.166Z" stroke="#4472C4" stroke-width="0.666667" stroke-miterlimit="8" fill="url(#fill0)" fill-rule="evenodd"/><path d="M496.5 102.668C496.5 76.0655 518.066 54.5001 544.668 54.5001L737.332 54.5001C763.935 54.5001 785.5 76.0655 785.5 102.668L785.5 586.332C785.5 612.935 763.935 634.5 737.332 634.5L544.668 634.5C518.066 634.5 496.5 612.935 496.5 586.332Z" stroke="#4472C4" stroke-width="0.666667" stroke-miterlimit="8" fill="url(#fill1)" fill-rule="evenodd"/><path d="M651.585 38.0316C655.037 45.9684 651.402 55.2012 643.465 58.6537 635.529 62.1061 626.296 58.4709 622.843 50.5341 621.185 46.7227 621.109 42.4088 622.632 38.5414Z" stroke="#172C51" stroke-width="1.33333" stroke-miterlimit="8" fill="#4472C4" fill-rule="evenodd"/></g></svg>