<svg width="1280" height="720" xmlns="http://www.w3.org/2000/svg" xmlns:xlink="http://www.w3.org/1999/xlink" overflow="hidden"><g><rect x="0" y="0" width="1280" height="720" fill="#FFFFFF" fill-opacity="0"/><path d="M737.5 111.334C737.5 104.798 742.798 99.5001 749.334 99.5001L796.667 99.5001C803.202 99.5001 808.5 104.798 808.5 111.334L808.5 273.667C808.5 280.202 803.202 285.5 796.667 285.5L749.334 285.5C742.798 285.5 737.5 280.202 737.5 273.667Z" fill="#A9D18E" fill-rule="evenodd"/><path d="M749.334 285.5C742.798 285.5 737.5 280.202 737.5 273.667L737.5 111.334C737.5 104.798 742.798 99.5001 749.334 99.5001M796.667 99.5001C803.202 99.5001 808.5 104.798 808.5 111.334L808.5 273.667C808.5 280.202 803.202 285.5 796.667 285.5" stroke="#000000" stroke-width="0.666667" stroke-miterlimit="8" fill="none" fill-rule="evenodd"/><path d="M737.5 312.333C737.5 308.56 740.56 305.5 744.333 305.5L801.667 305.5C805.441 305.5 808.5 308.56 808.5 312.333L808.5 339.667C808.5 343.441 805.441 346.5 801.667 346.5L744.333 346.5C740.56 346.5 737.5 343.441 737.5 339.667Z" fill="#A9D18E" fill-rule="evenodd"/><path d="M744.333 346.5C740.56 346.5 737.5 343.441 737.5 339.667L737.5 312.333C737.5 308.56 740.56 305.5 744.333 305.5M801.667 305.5C805.441 305.5 808.5 308.56 808.5 312.333L808.5 339.667C808.5 343.441 805.441 346.5 801.667 346.5" stroke="#000000" stroke-width="0.666667" stroke-miterlimit="8" fill="none" fill-rule="evenodd"/><path d="M480.5 91.8343C480.5 62.3786 504.379 38.5001 533.834 38.5001L747.166 38.5001C776.621 38.5001 800.5 62.3786 800.5 91.8343L800.5 596.166C800.5 625.621 776.621 649.5 747.166 649.5L533.834 649.5C504.379 649.5 480.5 625.621 480.5 596.166Z" stroke="#6C4F00" stroke-width="1.33333" stroke-miterlimit="8" fill="#A9D18E" fill-rule="evenodd"/><path d="M496 102.168C496 75.5654 517.565 54 544.168 54L736.832 54C763.435 54 785 75.5654 785 102.168L785 585.832C785 612.435 763.435 634 736.832 634L544.168 634C517.565 634 496 612.435 496 585.832Z" stroke="#FFFFFF" stroke-width="2" stroke-miterlimit="8" fill="#C5E0B4" fill-rule="evenodd"/><path d="M651.585 38.0316C655.037 45.9684 651.402 55.2012 643.465 58.6537 635.529 62.1061 626.296 58.4709 622.843 50.5341 621.185 46.7227 621.109 42.4088 622.632 38.5414Z" stroke="#172C51" stroke-width="1.33333" stroke-miterlimit="8" fill="#A9D18E" fill-rule="evenodd"/></g></svg>